<svg xmlns="http://www.w3.org/2000/svg" xmlns:xlink="http://www.w3.org/1999/xlink" viewBox="0 0 57.78 35.19"><defs><style>.cls-1{fill:url(#radial-gradient);}</style><radialGradient id="radial-gradient" cx="11.85" cy="5.3" r="34.12" gradientUnits="userSpaceOnUse"><stop offset="0" stop-color="#9b37ff"/><stop offset="0.2" stop-color="#902fec"/><stop offset="0.6" stop-color="#7319bd"/><stop offset="1" stop-color="#530087"/></radialGradient></defs><g id="Layer_2" data-name="Layer 2"><g id="Layer_1-2" data-name="Layer 1"><path class="cls-1" d="M21.94,26.24H9.7L7.2,34a.56.56,0,0,1-.62.46H.4c-.36,0-.46-.2-.36-.59L10.62,3.52c.1-.33.2-.63.33-1a11.59,11.59,0,0,0,.2-2.14A.33.33,0,0,1,11.41,0h8.52a.4.4,0,0,1,.43.26l12,33.54c.1.36,0,.53-.33.53H25.16a.51.51,0,0,1-.53-.36l-2.69-7.89ZM11.61,19.7H20c-.19-.69-.46-1.52-.75-2.37s-.6-1.84-.89-2.83-.63-2-1-3-.62-2-.88-2.93S16,6.77,15.75,6h-.06a41.64,41.64,0,0,1-1.12,4.25c-.49,1.57-1,3.22-1.51,4.86s-1,3.23-1.45,4.61Zm40.12,3.58H41.3a7.23,7.23,0,0,0,1,2.93,5.25,5.25,0,0,0,2.4,2,10.27,10.27,0,0,0,4.21.82,19.55,19.55,0,0,0,3.42-.36,11.91,11.91,0,0,0,2.93-.76c.16-.13.26-.06.26.27v5a1.34,1.34,0,0,1-.07.39.63.63,0,0,1-.23.23,14.14,14.14,0,0,1-3.28,1,22.15,22.15,0,0,1-4.67.39A15.55,15.55,0,0,1,41,34a11.05,11.05,0,0,1-4.14-3.12,12.08,12.08,0,0,1-2.27-4.31,17.07,17.07,0,0,1,.13-10,13.5,13.5,0,0,1,2.47-4.5,11.83,11.83,0,0,1,4-3.13,12.5,12.5,0,0,1,5.49-1,12,12,0,0,1,5.1,1,9.19,9.19,0,0,1,3.45,2.63,12.23,12.23,0,0,1,2,3.75,12.92,12.92,0,0,1,.63,4c0,.79,0,1.48-.07,2.11s-.1,1.08-.13,1.38a.49.49,0,0,1-.46.43c-.2,0-.56,0-1.09.06a14.62,14.62,0,0,1-1.9.1c-.76,0-1.55-.13-2.4-.13ZM41.3,18.48h6.94c.86,0,1.48,0,1.88,0a1.62,1.62,0,0,0,.75-.27v-.33a3.53,3.53,0,0,0-.2-1.21,4.36,4.36,0,0,0-4.27-3A4.62,4.62,0,0,0,42,16.11,6.79,6.79,0,0,0,41.3,18.48Z"/></g></g></svg>