<svg xmlns="http://www.w3.org/2000/svg" xmlns:xlink="http://www.w3.org/1999/xlink" viewBox="0 0 40.36 34.36"><defs><style>.cls-1{fill:url(#radial-gradient);}</style><radialGradient id="radial-gradient" cx="6.83" cy="0.03" fx="53.438235741368786" r="53.16" gradientUnits="userSpaceOnUse"><stop offset="0.18" stop-color="#ff8447"/><stop offset="0.25" stop-color="#fd9344"/><stop offset="0.35" stop-color="#fba441"/><stop offset="0.46" stop-color="#faae3f"/><stop offset="0.6" stop-color="#fab13e"/></radialGradient></defs><g id="Layer_2" data-name="Layer 2"><g id="Layer_1-2" data-name="Layer 1"><path class="cls-1" d="M20.19,26.67H8.93l-2.3,7.11a.52.52,0,0,1-.57.43H.37C0,34.21-.06,34,0,33.66L9.78,5.6c.09-.3.18-.64.3-1a10.61,10.61,0,0,0,.19-2,.3.3,0,0,1,.24-.33h7.84c.24,0,.36.09.39.24L29.79,33.72c.09.34,0,.49-.3.49H23.16a.45.45,0,0,1-.48-.33l-2.49-7.21Zm-9.5-6.15h7.69c-.18-.63-.43-1.39-.7-2.17s-.54-1.7-.82-2.61S16.29,13.9,16,13s-.58-1.82-.82-2.7-.45-1.63-.67-2.36h-.06a35.84,35.84,0,0,1-1,3.91c-.45,1.45-.9,3-1.39,4.48s-.88,3-1.33,4.23ZM36.54,7.6a3.71,3.71,0,0,1-2.69-1.06,3.93,3.93,0,0,1-1-2.79,3.55,3.55,0,0,1,1.09-2.69A3.84,3.84,0,0,1,36.6,0a3.63,3.63,0,0,1,2.76,1.06,3.84,3.84,0,0,1,1,2.69A3.87,3.87,0,0,1,39.3,6.54,3.57,3.57,0,0,1,36.54,7.6ZM33.15,33.88V10.57c0-.31.12-.43.4-.43h6c.27,0,.39.15.39.43V33.88c0,.33-.12.48-.39.48H33.61a.42.42,0,0,1-.46-.48Z"/></g></g></svg>