<svg xmlns="http://www.w3.org/2000/svg" xmlns:xlink="http://www.w3.org/1999/xlink" viewBox="0 0 52.43 39.97"><defs><style>.cls-1{fill:url(#radial-gradient);}</style><radialGradient id="radial-gradient" cx="26.22" cy="19.98" fx="8.671225498233039" fy="3.4773811779578416" r="44.37" gradientUnits="userSpaceOnUse"><stop offset="0.05" stop-color="#8a93ff"/><stop offset="0.59" stop-color="#5865f2"/></radialGradient></defs><g id="Layer_2" data-name="Layer 2"><g id="Layer_1-2" data-name="Layer 1"><path class="cls-1" d="M44.39,3.31A43.63,43.63,0,0,0,33.71,0a.18.18,0,0,0-.17.08c-.46.82-1,1.89-1.33,2.73a40.09,40.09,0,0,0-12,0A28.82,28.82,0,0,0,18.88.08.18.18,0,0,0,18.71,0,43.63,43.63,0,0,0,8,3.31L8,3.37A44.26,44.26,0,0,0,.22,33.22a.17.17,0,0,0,.06.12A43.7,43.7,0,0,0,13.38,40a.17.17,0,0,0,.18-.06,30.9,30.9,0,0,0,2.68-4.36.16.16,0,0,0-.09-.23,28.42,28.42,0,0,1-4.09-2,.17.17,0,0,1,0-.28c.28-.2.55-.42.81-.63a.18.18,0,0,1,.17,0,31,31,0,0,0,26.35,0,.19.19,0,0,1,.18,0c.26.22.53.44.81.64a.17.17,0,0,1,0,.28,27.51,27.51,0,0,1-4.1,2,.16.16,0,0,0-.08.23,33.89,33.89,0,0,0,2.67,4.36A.19.19,0,0,0,39,40a43.63,43.63,0,0,0,13.11-6.62.19.19,0,0,0,.07-.12A43.91,43.91,0,0,0,44.45,3.38.13.13,0,0,0,44.39,3.31Zm-26.87,24A5,5,0,0,1,12.81,22a5,5,0,0,1,4.71-5.29A5,5,0,0,1,22.23,22,5,5,0,0,1,17.52,27.26Zm17.42,0A5,5,0,0,1,30.23,22a5,5,0,0,1,4.71-5.29A5,5,0,0,1,39.66,22,5,5,0,0,1,34.94,27.26Z"/></g></g></svg>