<svg id="Layer_1" data-name="Layer 1" xmlns="http://www.w3.org/2000/svg" viewBox="0 0 512 512"><defs><style>.cls-1{fill:#f1f2f2;}</style></defs><path class="cls-1" d="M413.92,112.81A374.56,374.56,0,0,0,320.07,83.9a238.07,238.07,0,0,0-11.94,24.32,359.35,359.35,0,0,0-104,0c-3.21-7.57-8-17.21-11.93-24.32a369.39,369.39,0,0,0-93.88,28.91C38.92,200.47,22.86,286.06,30.89,370.5a382.25,382.25,0,0,0,115,57.6,279,279,0,0,0,24.55-39.7,240.26,240.26,0,0,1-38.78-18.59c3.21-2.29,6.43-4.81,9.41-7.34,74.8,34.19,155.83,34.19,229.72,0,3.21,2.53,6.19,5,9.41,7.34a241.06,241.06,0,0,1-38.78,18.59A279,279,0,0,0,366,428.1a380.16,380.16,0,0,0,115-57.6C490.81,272.75,465.32,187.85,413.92,112.81ZM180.76,318.41c-22.49,0-40.85-20.42-40.85-45.43s17.9-45.43,40.85-45.43c22.71,0,41.3,20.42,40.84,45.43C221.6,298,203.47,318.41,180.76,318.41Zm150.78,0c-22.49,0-40.87-20.42-40.87-45.43s17.92-45.43,40.87-45.43c22.72,0,41.3,20.42,40.84,45.43C372.38,298,354.49,318.41,331.54,318.41Z"/></svg>