<svg id="visual" viewBox="0 0 960 540" width="960" height="540" xmlns="http://www.w3.org/2000/svg" xmlns:xlink="http://www.w3.org/1999/xlink" version="1.1"><rect x="0" y="0" width="960" height="540" fill="#000000"></rect><path d="M0 331L137 331L137 335L274 335L274 254L411 254L411 341L549 341L549 326L686 326L686 273L823 273L823 234L960 234L960 254L960 541L960 541L823 541L823 541L686 541L686 541L549 541L549 541L411 541L411 541L274 541L274 541L137 541L137 541L0 541Z" fill="#3d0761"></path><path d="M0 373L137 373L137 387L274 387L274 392L411 392L411 317L549 317L549 321L686 321L686 312L823 312L823 361L960 361L960 359L960 541L960 541L823 541L823 541L686 541L686 541L549 541L549 541L411 541L411 541L274 541L274 541L137 541L137 541L0 541Z" fill="#4b057a"></path><path d="M0 462L137 462L137 483L274 483L274 422L411 422L411 489L549 489L549 491L686 491L686 459L823 459L823 441L960 441L960 412L960 541L960 541L823 541L823 541L686 541L686 541L549 541L549 541L411 541L411 541L274 541L274 541L137 541L137 541L0 541Z" fill="#590194"></path></svg>