<svg xmlns="http://www.w3.org/2000/svg" xmlns:xlink="http://www.w3.org/1999/xlink" viewBox="0 0 51.96 51.94"><defs><style>.cls-1{fill:url(#radial-gradient);}</style><radialGradient id="radial-gradient" cx="25.98" cy="25.97" fx="16.15165547767954" fy="0.5805161923587718" r="27.23" gradientUnits="userSpaceOnUse"><stop offset="0.22" stop-color="#f03c2e"/><stop offset="0.33" stop-color="#e13428"/><stop offset="0.53" stop-color="#b92019"/><stop offset="0.81" stop-color="#7a0000"/></radialGradient></defs><g id="Layer_2" data-name="Layer 2"><g id="Layer_1-2" data-name="Layer 1"><path class="cls-1" d="M51,23.67,28.3,1A3.37,3.37,0,0,0,27.21.25a3.4,3.4,0,0,0-2.56,0A3.37,3.37,0,0,0,23.56,1l-4.7,4.71,6,6A4,4,0,0,1,30,14.54a3.89,3.89,0,0,1-.12,2.19l5.76,5.76a4,4,0,0,1,5.28,3.76,3.92,3.92,0,0,1-1.17,2.82,3.89,3.89,0,0,1-1.29.86,4,4,0,0,1-1.52.3,4,4,0,0,1-1.53-.3,4,4,0,0,1-2.15-5.19l-5.38-5.38V33.5a4.16,4.16,0,0,1,1.06.75,4,4,0,1,1-5.63,5.63,3.92,3.92,0,0,1-.87-1.29,4,4,0,0,1-.3-1.52,3.92,3.92,0,0,1,1.17-2.82,3.91,3.91,0,0,1,1.3-.87V19.12a4,4,0,0,1-2.16-5.22L16.54,8,1,23.54a3.37,3.37,0,0,0-.73,1.09A3.51,3.51,0,0,0,0,25.91a3.47,3.47,0,0,0,.25,1.28A3.37,3.37,0,0,0,1,28.28L23.67,51a3.44,3.44,0,0,0,1.08.73,3.51,3.51,0,0,0,1.28.25,3.47,3.47,0,0,0,1.28-.25A3.37,3.37,0,0,0,28.4,51L51,28.42a3.48,3.48,0,0,0,.73-1.09A3.32,3.32,0,0,0,52,26.05a3.28,3.28,0,0,0-.25-1.28A3.37,3.37,0,0,0,51,23.68"/></g></g></svg>