<svg xmlns="http://www.w3.org/2000/svg" xmlns:xlink="http://www.w3.org/1999/xlink" viewBox="0 0 68.3 67.16"><defs><style>.cls-1{fill-rule:evenodd;fill:url(#radial-gradient);}</style><radialGradient id="radial-gradient" cx="34.15" cy="33.58" fx="7.558794527276866" fy="-10.429104431068332" r="51.42" gradientUnits="userSpaceOnUse"><stop offset="0.15" stop-color="#fff"/><stop offset="1" stop-color="#242424"/></radialGradient></defs><g id="Layer_2" data-name="Layer 2"><g id="Layer_1-2" data-name="Layer 1"><path class="cls-1" d="M34.18,0A34.46,34.46,0,0,0,23.37,67.09c1.7.34,2.32-.74,2.32-1.65s-.06-3.53-.06-6.39C16.13,61.11,14.15,55,14.15,55c-1.53-4-3.8-5-3.8-5-3.11-2.1.23-2.1.23-2.1,3.45.22,5.26,3.53,5.26,3.53,3.06,5.24,8,3.76,10,2.85A7.36,7.36,0,0,1,28,49.59c-7.58-.8-15.56-3.76-15.56-17a13.49,13.49,0,0,1,3.51-9.24,12.5,12.5,0,0,1,.34-9.12s2.89-.91,9.39,3.53a33.35,33.35,0,0,1,8.55-1.14,32.93,32.93,0,0,1,8.54,1.14c6.51-4.44,9.39-3.53,9.39-3.53a12.5,12.5,0,0,1,.34,9.12A13.22,13.22,0,0,1,56,32.61c0,13.22-8,16.13-15.62,17,1.25,1.09,2.32,3.14,2.32,6.39,0,4.61,0,8.32,0,9.46,0,.91.62,2,2.32,1.65A34.46,34.46,0,0,0,34.18,0Z"/></g></g></svg>