<svg xmlns="http://www.w3.org/2000/svg" xmlns:xlink="http://www.w3.org/1999/xlink" viewBox="0 0 47.07 33.41"><defs><style>.cls-1{fill:url(#radial-gradient);}</style><radialGradient id="radial-gradient" cx="23.54" cy="16.71" fx="10.278406751814796" fy="-5.501499452882928" r="39.27" gradientUnits="userSpaceOnUse"><stop offset="0.07" stop-color="#ffb200"/><stop offset="0.12" stop-color="#f3a600"/><stop offset="0.27" stop-color="#d88a00"/><stop offset="0.42" stop-color="#c57600"/><stop offset="0.57" stop-color="#b96a00"/><stop offset="0.71" stop-color="#b56600"/></radialGradient></defs><g id="Layer_2" data-name="Layer 2"><g id="Layer_1-2" data-name="Layer 1"><path class="cls-1" d="M0,27.27,5.46,24c1.06,1.87,2,3.45,4.32,3.45s3.59-.86,3.59-4.22V.38h6.71V23.3c0,7-4.07,10.11-10,10.11C4.7,33.41,1.58,30.63,0,27.27m23.73-.71c2,3.88,6,6.85,12.22,6.85s11.12-3.31,11.12-9.35c0-5.61-3.21-8.1-8.91-10.54l-1.68-.72c-2.88-1.25-4.12-2.06-4.12-4.08a2.91,2.91,0,0,1,3.21-2.87c1.92,0,3.16.81,4.31,2.87l5.23-3.35C42.9,1.49,39.84,0,35.57,0c-6,0-9.83,3.83-9.83,8.87,0,5.46,3.21,8.05,8.06,10.11l1.67.72c3.07,1.34,4.89,2.16,4.89,4.46,0,1.92-1.77,3.31-4.55,3.31-3.31,0-5.18-1.73-6.62-4.08l-5.46,3.17"/></g></g></svg>