<svg xmlns="http://www.w3.org/2000/svg" xmlns:xlink="http://www.w3.org/1999/xlink" viewBox="0 0 44.78 44.55"><defs><style>.cls-1{fill:url(#radial-gradient);}</style><radialGradient id="radial-gradient" cx="22.39" cy="22.27" fx="10.276900375270383" fy="0.7403021138832813" r="43.25" gradientUnits="userSpaceOnUse"><stop offset="0.09" stop-color="#bda400"/><stop offset="0.72" stop-color="#004cab"/></radialGradient></defs><g id="Layer_2" data-name="Layer 2"><g id="Layer_1-2" data-name="Layer 1"><path class="cls-1" d="M16.39,21.61H27.15s6,.09,6-5.85V5.94S34.11,0,22.23,0C10.86,0,11.57,4.93,11.57,4.93V10H22.43v1.53H7.27S0,10.74,0,22.22,6.35,33.28,6.35,33.28h3.79V28S9.93,21.61,16.39,21.61ZM16.25,7.34a2,2,0,1,1,1.95-2A2,2,0,0,1,16.25,7.34Zm22.18,3.93H34.64v5.32s.21,6.35-6.25,6.35H17.63s-6-.1-6,5.84V38.6s-.92,5.95,11,5.95c11.37,0,10.66-4.93,10.66-4.93V34.51H22.35V33H37.51s7.27.82,7.27-10.65S38.43,11.27,38.43,11.27Zm-9.9,25.94a1.95,1.95,0,1,1-2,1.95A2,2,0,0,1,28.53,37.21Z"/></g></g></svg>