<svg xmlns="http://www.w3.org/2000/svg" xmlns:xlink="http://www.w3.org/1999/xlink" viewBox="0 0 67.87 67.87"><defs><style>.cls-1{fill:url(#radial-gradient);}</style><radialGradient id="radial-gradient" cx="33.93" cy="33.93" fx="13.53609277298105" fy="13.385131146067248" r="53.3" gradientUnits="userSpaceOnUse"><stop offset="0.08" stop-color="#38ff7a"/><stop offset="0.8" stop-color="#008f4e"/></radialGradient></defs><g id="Layer_2" data-name="Layer 2"><g id="Layer_1-2" data-name="Layer 1"><path class="cls-1" d="M33.93,0A33.94,33.94,0,1,0,67.87,33.93,34,34,0,0,0,33.93,0ZM47.31,50.9c-.62,0-.93-.31-1.55-.62A32.94,32.94,0,0,0,29,45.93,54.65,54.65,0,0,0,18.7,47.17a13.24,13.24,0,0,0-1.56.31A2.13,2.13,0,0,1,15,45.3c0-1.24.62-2.17,1.87-2.17a54.12,54.12,0,0,1,12.44-1.56,39.51,39.51,0,0,1,19.29,5c.62.62,1.24.93,1.24,2.17C49.18,50.28,48.24,50.9,47.31,50.9Zm3.42-8.7a4.43,4.43,0,0,1-1.86-.63C43.58,38.15,36.11,36.28,28,36.28a49.33,49.33,0,0,0-10.57,1.25,2.83,2.83,0,0,1-1.56.31,2.46,2.46,0,0,1-2.49-2.49c0-1.56.62-2.18,2.18-2.8a47.84,47.84,0,0,1,12.76-1.87A46.27,46.27,0,0,1,52,36.9a3.18,3.18,0,0,1,1.55,2.49C53.22,41,52.29,42.2,50.73,42.2Zm4.05-10c-.63,0-.94-.31-1.87-.62C46.69,28.19,37.67,26,29,26a60.32,60.32,0,0,0-13.07,1.55c-.62,0-.93.31-1.87.31-1.86.32-3.11-1.24-3.11-3.1a2.86,2.86,0,0,1,2.18-3.12A65.49,65.49,0,0,1,29,19.8C38.6,19.8,48.56,22,56.33,26a3.63,3.63,0,0,1,1.87,3.11A3.4,3.4,0,0,1,54.78,32.24Z"/></g></g></svg>