<svg xmlns="http://www.w3.org/2000/svg" xmlns:xlink="http://www.w3.org/1999/xlink" viewBox="0 0 35.98 43.29"><defs><style>.cls-1{fill:url(#radial-gradient);}</style><radialGradient id="radial-gradient" cx="31.47" cy="41.28" r="51.63" gradientUnits="userSpaceOnUse"><stop offset="0.23" stop-color="#8f1300"/><stop offset="0.39" stop-color="#b72d15"/><stop offset="0.56" stop-color="#d64126"/><stop offset="0.72" stop-color="#ed5031"/><stop offset="0.87" stop-color="#fa5939"/><stop offset="1" stop-color="#ff5c3b"/></radialGradient></defs><g id="Layer_2" data-name="Layer 2"><g id="Layer_1-2" data-name="Layer 1"><path class="cls-1" d="M33.68,5.73A13.22,13.22,0,0,0,16,1.91L5.91,8.37A11.5,11.5,0,0,0,.7,16.11a12,12,0,0,0,1.22,7.81A11,11,0,0,0,.19,28.25a12.38,12.38,0,0,0,2.09,9.31A13.23,13.23,0,0,0,20,41.38L30.05,35a11.46,11.46,0,0,0,5.21-7.74,12.06,12.06,0,0,0-1.21-7.81,11.13,11.13,0,0,0,1.72-4.33A12.06,12.06,0,0,0,33.68,5.73ZM30.82,14a8.39,8.39,0,0,1-.26.95l-.18.59-.51-.37a13.31,13.31,0,0,0-4-2l-.36-.11,0-.36a2.54,2.54,0,0,0-.41-1.51,2.4,2.4,0,0,0-2.6-.95,3.94,3.94,0,0,0-.63.25l-10,6.42a2.09,2.09,0,0,0-1,1.4A2.21,2.21,0,0,0,11.31,20a2.39,2.39,0,0,0,2.6,1,3.5,3.5,0,0,0,.62-.26l3.86-2.46A7.78,7.78,0,0,1,29,20.51a7.4,7.4,0,0,1,1.29,5.61,7,7,0,0,1-3.16,4.66L17.07,37.2a8.69,8.69,0,0,1-2.06.92,8,8,0,0,1-8.58-3.2,7.4,7.4,0,0,1-1.29-5.61c.08-.33.15-.62.22-.95l.19-.59.51.37a13.37,13.37,0,0,0,4,2l.37.11,0,.37a2.46,2.46,0,0,0,.41,1.5,2.42,2.42,0,0,0,2.6,1,2.89,2.89,0,0,0,.62-.26L24,26.41A2,2,0,0,0,25,25a2.29,2.29,0,0,0-.37-1.69,2.4,2.4,0,0,0-2.6-.95,3.21,3.21,0,0,0-.63.26l-3.85,2.45a6.56,6.56,0,0,1-2,.88A8,8,0,0,1,6.9,22.78a7.41,7.41,0,0,1-1.24-5.61,7,7,0,0,1,3.15-4.66L18.9,6.09A7.79,7.79,0,0,1,29.54,8.37,7.43,7.43,0,0,1,30.82,14Z"/></g></g></svg>