<svg xmlns="http://www.w3.org/2000/svg" xmlns:xlink="http://www.w3.org/1999/xlink" viewBox="0 0 68.47 55.64"><defs><style>.cls-1{fill:url(#radial-gradient);}</style><radialGradient id="radial-gradient" cx="22.24" cy="25.73" fx="-12.663819354802826" fy="-11.456649909921161" r="51" gradientUnits="userSpaceOnUse"><stop offset="0.37" stop-color="#0080ff"/><stop offset="0.88" stop-color="#004185"/></radialGradient></defs><g id="Layer_2" data-name="Layer 2"><g id="Layer_1-2" data-name="Layer 1"><path class="cls-1" d="M68.47,6.59A28,28,0,0,1,60.4,8.8,14.06,14.06,0,0,0,66.58,1a28.08,28.08,0,0,1-8.92,3.41A14.07,14.07,0,0,0,33.72,17.25,39.9,39.9,0,0,1,4.77,2.57,14.07,14.07,0,0,0,9.11,21.32a14,14,0,0,1-6.36-1.75v.17A14.06,14.06,0,0,0,14,33.52a14.15,14.15,0,0,1-6.34.24A14.06,14.06,0,0,0,20.8,43.52a28.23,28.23,0,0,1-17.45,6A28.56,28.56,0,0,1,0,49.33a39.73,39.73,0,0,0,21.53,6.31c25.84,0,40-21.4,40-40,0-.6,0-1.21,0-1.81A28.66,28.66,0,0,0,68.47,6.59Z"/></g></g></svg>